<?xml version="1.0" standalone="no"?>
<!DOCTYPE svg PUBLIC "-//W3C//DTD SVG 20010904//EN"
 "http://www.w3.org/TR/2001/REC-SVG-20010904/DTD/svg10.dtd">
<svg version="1.0" xmlns="http://www.w3.org/2000/svg"
 width="1000.000000pt" height="1000.000000pt" viewBox="0 0 1000.000000 1000.000000"
 preserveAspectRatio="xMidYMid meet">

<!-- Background Rounded Rectangle -->
<rect x="0" y="0" width="1000" height="1000" rx="200" ry="200" fill="#1a1a1a" />

<!-- Logo Path -->
<g transform="translate(0.000000,1000.000000) scale(0.100000,-0.100000)"
fill="#00ff9d" stroke="none">
<path d="M6142 7449 c67 -14 139 -65 183 -129 l30 -45 3 -1020 c2 -994 1 -1048
-28 -1255 -27 -194 -110 -429 -194 -553 -14 -21 -26 -40 -26 -44 0 -17 -162
-222 -289 -366 -170 -192 -1445 -1475 -1478 -1488 -13 -5 -47 -9 -74 -9 -74 0
-89 20 -89 118 0 74 2 81 46 157 25 44 57 100 71 125 39 69 87 153 100 175 7
11 15 27 19 35 4 8 24 42 44 75 20 33 39 67 43 75 4 8 13 24 19 35 27 41 62
102 108 184 46 84 240 421 271 471 40 65 195 334 247 430 20 36 43 76 52 90
29 43 130 241 130 254 0 8 6 19 14 25 8 6 16 24 19 39 3 15 16 63 28 107 21
77 21 82 5 137 -22 73 -79 138 -148 168 -73 33 -225 40 -312 15 -204 -57 -413
-153 -601 -276 -262 -171 -289 -182 -425 -183 -147 -1 -193 22 -254 132 -48
85 -49 142 -4 229 27 52 135 165 751 785 396 397 835 842 976 986 280 289 450
449 516 488 70 40 153 52 247 33z"/>
</g>
</svg>
